# xmcd CD database file
#
# Track frame offsets:
#	150
#	35862
#	80430
#	109175
#	146727
#	168682
#	178342
#	239507
#	257180
#
# Disc length: 3953 seconds
#
# Revision: 0
# Processed by: cddbd v1.5.2PL0 Copyright (c) Steve Scherf et al.
# Submitted via: CDex 1.70beta2
#
DISCID=890f6f09
DTITLE=Santana - Travelin' Blues
DYEAR=1967
DGENRE=Blues
TTITLE0=Evil Way (Live)
TTITLE1=Jingo
TTITLE2=Soul Sacrifice
TTITLE3=Jammin' Home
TTITLE4=Travellin' Blues
TTITLE5=Let's Get Ourselves Together
TTITLE6=El Corazon Manda
TTITLE7=As The Years Go By
TTITLE8=Santana Jam
EXTD=YEAR: 1967
EXTT0=
EXTT1=
EXTT2=
EXTT3=
EXTT4=
EXTT5=
EXTT6=
EXTT7=
EXTT8=
PLAYORDER=
